<mxfile host="app.diagrams.net" agent="Mozilla/5.0 (Windows NT 10.0; Win64; x64) AppleWebKit/537.36 (KHTML, like Gecko) Chrome/132.0.0.0 Safari/537.36" version="26.0.11">
  <diagram name="Page-1" id="svBv-zBPLVtbtiTf6Jia">
    <mxGraphModel dx="955" dy="562" grid="1" gridSize="10" guides="1" tooltips="1" connect="1" arrows="1" fold="1" page="1" pageScale="1" pageWidth="850" pageHeight="1100" math="0" shadow="0">
      <root>
        <mxCell id="0" />
        <mxCell id="1" parent="0" />
        <mxCell id="3AZIx9r4ZMq2hVfcq7Wi-1" value="&lt;b&gt;SLIDING WINDOW&lt;/b&gt;" style="rounded=0;whiteSpace=wrap;html=1;fillColor=#dae8fc;strokeColor=#6c8ebf;" vertex="1" parent="1">
          <mxGeometry x="395" y="79" width="120" height="60" as="geometry" />
        </mxCell>
        <mxCell id="3AZIx9r4ZMq2hVfcq7Wi-2" value="&lt;b&gt;PREFIX SUM&lt;/b&gt;" style="rounded=0;whiteSpace=wrap;html=1;fillColor=#d5e8d4;strokeColor=#82b366;" vertex="1" parent="1">
          <mxGeometry x="80" y="239" width="120" height="60" as="geometry" />
        </mxCell>
        <mxCell id="3AZIx9r4ZMq2hVfcq7Wi-3" value="&lt;b&gt;LINESWEEP&lt;/b&gt;" style="rounded=0;whiteSpace=wrap;html=1;fillColor=#d5e8d4;strokeColor=#82b366;" vertex="1" parent="1">
          <mxGeometry x="80" y="319" width="120" height="60" as="geometry" />
        </mxCell>
        <mxCell id="3AZIx9r4ZMq2hVfcq7Wi-4" value="&lt;b&gt;STACK&lt;/b&gt;" style="rounded=0;whiteSpace=wrap;html=1;fillColor=#d5e8d4;strokeColor=#82b366;" vertex="1" parent="1">
          <mxGeometry x="80" y="399" width="120" height="60" as="geometry" />
        </mxCell>
        <mxCell id="3AZIx9r4ZMq2hVfcq7Wi-5" value="&lt;b&gt;BINARY SEARCH&lt;/b&gt;" style="rounded=0;whiteSpace=wrap;html=1;fillColor=#d5e8d4;strokeColor=#82b366;" vertex="1" parent="1">
          <mxGeometry x="80" y="479" width="120" height="60" as="geometry" />
        </mxCell>
        <mxCell id="3AZIx9r4ZMq2hVfcq7Wi-6" value="&lt;b&gt;2 POINTER&lt;/b&gt;" style="rounded=0;whiteSpace=wrap;html=1;fillColor=#d5e8d4;strokeColor=#82b366;" vertex="1" parent="1">
          <mxGeometry x="80" y="159" width="120" height="60" as="geometry" />
        </mxCell>
        <mxCell id="3AZIx9r4ZMq2hVfcq7Wi-7" value="&lt;b&gt;MATRIX&lt;/b&gt;" style="rounded=0;whiteSpace=wrap;html=1;fillColor=#d5e8d4;strokeColor=#82b366;" vertex="1" parent="1">
          <mxGeometry x="80" y="559" width="120" height="60" as="geometry" />
        </mxCell>
        <mxCell id="3AZIx9r4ZMq2hVfcq7Wi-8" value="&lt;b&gt;GRAPH&lt;/b&gt;" style="rounded=0;whiteSpace=wrap;html=1;fillColor=#d5e8d4;strokeColor=#82b366;" vertex="1" parent="1">
          <mxGeometry x="80" y="639" width="120" height="60" as="geometry" />
        </mxCell>
        <mxCell id="3AZIx9r4ZMq2hVfcq7Wi-9" value="&lt;b&gt;DYN. PROG&lt;/b&gt;" style="rounded=0;whiteSpace=wrap;html=1;fillColor=#d5e8d4;strokeColor=#82b366;" vertex="1" parent="1">
          <mxGeometry x="80" y="719" width="120" height="60" as="geometry" />
        </mxCell>
        <mxCell id="3AZIx9r4ZMq2hVfcq7Wi-10" value="&lt;b&gt;TREES &amp;amp; TYPES&lt;/b&gt;" style="rounded=0;whiteSpace=wrap;html=1;fillColor=#d5e8d4;strokeColor=#82b366;" vertex="1" parent="1">
          <mxGeometry x="80" y="799" width="120" height="60" as="geometry" />
        </mxCell>
        <mxCell id="3AZIx9r4ZMq2hVfcq7Wi-11" value="&lt;b&gt;LINKEDLIST&lt;/b&gt;" style="rounded=0;whiteSpace=wrap;html=1;fillColor=#d5e8d4;strokeColor=#82b366;" vertex="1" parent="1">
          <mxGeometry x="80" y="879" width="120" height="60" as="geometry" />
        </mxCell>
        <mxCell id="3AZIx9r4ZMq2hVfcq7Wi-12" value="&lt;b&gt;STRINGS&lt;/b&gt;" style="rounded=0;whiteSpace=wrap;html=1;fillColor=#d5e8d4;strokeColor=#82b366;" vertex="1" parent="1">
          <mxGeometry x="80" y="959" width="120" height="60" as="geometry" />
        </mxCell>
        <mxCell id="3AZIx9r4ZMq2hVfcq7Wi-13" value="" style="endArrow=none;html=1;rounded=0;strokeWidth=4;" edge="1" parent="1">
          <mxGeometry width="50" height="50" relative="1" as="geometry">
            <mxPoint x="320" y="79" as="sourcePoint" />
            <mxPoint x="320" y="1021.13330078125" as="targetPoint" />
          </mxGeometry>
        </mxCell>
        <mxCell id="3AZIx9r4ZMq2hVfcq7Wi-14" value="" style="endArrow=none;html=1;rounded=0;strokeWidth=4;" edge="1" parent="1">
          <mxGeometry width="50" height="50" relative="1" as="geometry">
            <mxPoint x="600" y="79" as="sourcePoint" />
            <mxPoint x="600" y="1021.13330078125" as="targetPoint" />
          </mxGeometry>
        </mxCell>
        <mxCell id="3AZIx9r4ZMq2hVfcq7Wi-15" value="&lt;b&gt;IN-PROGRESS&lt;/b&gt;" style="text;strokeColor=none;align=center;fillColor=none;html=1;verticalAlign=middle;whiteSpace=wrap;rounded=0;" vertex="1" parent="1">
          <mxGeometry x="410" y="40" width="90" height="30" as="geometry" />
        </mxCell>
        <mxCell id="3AZIx9r4ZMq2hVfcq7Wi-16" value="&lt;b&gt;TO DO&lt;/b&gt;" style="text;strokeColor=none;align=center;fillColor=none;html=1;verticalAlign=middle;whiteSpace=wrap;rounded=0;" vertex="1" parent="1">
          <mxGeometry x="100" y="40" width="90" height="30" as="geometry" />
        </mxCell>
        <mxCell id="3AZIx9r4ZMq2hVfcq7Wi-17" value="&lt;b&gt;COMPLETED&lt;/b&gt;" style="text;strokeColor=none;align=center;fillColor=none;html=1;verticalAlign=middle;whiteSpace=wrap;rounded=0;" vertex="1" parent="1">
          <mxGeometry x="670" y="40" width="90" height="30" as="geometry" />
        </mxCell>
      </root>
    </mxGraphModel>
  </diagram>
</mxfile>
